Async-Mono-Bold-Display.ufo
<glyph name="quotesingle" format="1">
  <advance width="600"/>
  <unicode hex="0027"/>
  <outline>
    <contour>
      <point x="245" y="770" type="line"/>
      <point x="241" y="691"/>
      <point x="233" y="594"/>
      <point x="233" y="535" type="curve" smooth="yes"/>
      <point x="233" y="489"/>
      <point x="284" y="461"/>
      <point x="356" y="450" type="curve"/>
      <point x="375" y="450" type="line"/>
      <point x="371" y="489"/>
      <point x="370" y="525"/>
      <point x="370" y="563" type="curve" smooth="yes"/>
      <point x="370" y="606"/>
      <point x="378" y="652"/>
      <point x="378" y="686" type="curve" smooth="yes"/>
      <point x="378" y="725"/>
      <point x="319" y="763"/>
      <point x="265" y="770" type="curve"/>
    </contour>
  </outline>
</glyph>
<glyph name="bracketleft" format="1">
  <advance width="600"/>
  <unicode hex="005B"/>
  <outline>
    <contour>
      <point x="277.8744536343417" y="74.62175342992691"/>
      <point x="267" y="175"/>
      <point x="267" y="309" type="curve"/>
      <point x="221" y="360"/>
      <point x="175" y="360"/>
      <point x="131" y="309" type="curve"/>
      <point x="131" y="147"/>
      <point x="144.87136309165888" y="24.526241897759178"/>
      <point x="156" y="-21" type="curve" smooth="yes"/>
      <point x="162" y="-44"/>
      <point x="206" y="-112"/>
      <point x="257" y="-128" type="curve" smooth="yes"/>
      <point x="289" y="-138"/>
      <point x="395" y="-144"/>
      <point x="481" y="-144" type="curve"/>
      <point x="481" y="-123" type="line"/>
      <point x="470" y="-69"/>
      <point x="419" y="-10"/>
      <point x="385" y="-10" type="curve" smooth="yes"/>
      <point x="370" y="-10"/>
      <point x="338" y="-10"/>
      <point x="264" y="5" type="curve"/>
      <point x="299" y="-30" type="line"/>
    </contour>
    <contour>
      <point x="267" y="309" type="line"/>
      <point x="267.0" y="389.0"/>
      <point x="272.0159377534687" y="552.1347464611445"/>
      <point x="283" y="645" type="curve"/>
      <point x="249" y="610" type="line"/>
      <point x="359.3885971773193" y="627.8724395429946"/>
      <point x="445.8421052631579" y="629.0"/>
      <point x="489" y="629" type="curve"/>
      <point x="489" y="650" type="line"/>
      <point x="489" y="688"/>
      <point x="416" y="759"/>
      <point x="374" y="759" type="curve" smooth="yes"/>
      <point x="336.8125" y="759.0"/>
      <point x="259.7568391907988" y="751.9516212283494"/>
      <point x="234" y="738" type="curve" smooth="yes"/>
      <point x="207" y="723"/>
      <point x="154" y="683"/>
      <point x="149" y="629" type="curve" smooth="yes"/>
      <point x="142" y="563"/>
      <point x="131" y="426"/>
      <point x="131" y="309" type="curve"/>
    </contour>
  </outline>
</glyph>
<glyph name="a" format="1">
  <advance width="600"/>
  <unicode hex="0061"/>
  <outline>
    <contour>
      <point x="379" y="233" type="line"/>
      <point x="355" y="303"/>
      <point x="292" y="343"/>
      <point x="220" y="343" type="curve" smooth="yes"/>
      <point x="113" y="343"/>
      <point x="32" y="281"/>
      <point x="32" y="190" type="curve" smooth="yes"/>
      <point x="32" y="186" type="line" smooth="yes"/>
      <point x="32" y="157"/>
      <point x="41" y="134"/>
      <point x="56" y="114" type="curve"/>
      <point x="56" y="56"/>
      <point x="83" y="-21"/>
      <point x="191" y="-21" type="curve" smooth="yes"/>
      <point x="267" y="-21"/>
      <point x="321" y="33"/>
      <point x="366" y="139" type="curve"/>
      <point x="366" y="192" type="line"/>
      <point x="304" y="122"/>
      <point x="255" y="100"/>
      <point x="189" y="100" type="curve" smooth="yes"/>
      <point x="136" y="100"/>
      <point x="109" y="117"/>
      <point x="91" y="167" type="curve"/>
      <point x="81" y="100" type="line"/>
      <point x="129" y="93" type="line"/>
      <point x="117" y="112"/>
      <point x="114" y="122"/>
      <point x="114" y="139" type="curve" smooth="yes"/>
      <point x="114" y="198"/>
      <point x="173" y="228"/>
      <point x="242" y="228" type="curve" smooth="yes"/>
      <point x="288" y="228"/>
      <point x="347" y="208"/>
      <point x="363" y="165" type="curve"/>
    </contour>
    <contour>
      <point x="49" y="528" type="line"/>
      <point x="49" y="461"/>
      <point x="87" y="395"/>
      <point x="126" y="395" type="curve" smooth="yes"/>
      <point x="205" y="395"/>
      <point x="243.17391304347825" y="447.0"/>
      <point x="322" y="447" type="curve" smooth="yes"/>
      <point x="361" y="447"/>
      <point x="374" y="444"/>
      <point x="401" y="436" type="curve"/>
      <point x="394" y="457" type="line"/>
      <point x="354" y="465" type="line"/>
      <point x="367" y="442"/>
      <point x="373" y="408"/>
      <point x="373" y="368" type="curve" smooth="yes"/>
      <point x="373" y="287"/>
      <point x="355" y="210"/>
      <point x="355" y="133" type="curve" smooth="yes"/>
      <point x="355" y="99"/>
      <point x="364" y="69"/>
      <point x="408" y="52" type="curve"/>
      <point x="415" y="12"/>
      <point x="444.8235294117647" y="-12.0"/>
      <point x="486" y="-12" type="curve" smooth="yes"/>
      <point x="541" y="-12"/>
      <point x="580" y="49"/>
      <point x="580" y="178" type="curve" smooth="yes"/>
      <point x="580" y="191"/>
      <point x="574" y="196"/>
      <point x="565" y="198" type="curve"/>
      <point x="529" y="129"/>
      <point x="494" y="116"/>
      <point x="420" y="104" type="curve"/>
      <point x="449" y="91" type="line"/>
      <point x="445" y="104"/>
      <point x="443" y="115"/>
      <point x="443" y="127" type="curve" smooth="yes"/>
      <point x="443" y="173"/>
      <point x="509" y="244"/>
      <point x="509" y="369" type="curve" smooth="yes"/>
      <point x="509" y="417"/>
      <point x="495" y="462"/>
      <point x="414" y="482" type="curve"/>
      <point x="397" y="522"/>
      <point x="354" y="549"/>
      <point x="278" y="549" type="curve" smooth="yes"/>
      <point x="213.62672811059906" y="549.0"/>
      <point x="152" y="529"/>
      <point x="49" y="530" type="curve"/>
    </contour>
  </outline>
</glyph>
<glyph name="b" format="1">
  <advance width="600"/>
  <unicode hex="0062"/>
  <outline>
    <contour>
      <point x="181" y="-11" type="line"/>
      <point x="181" y="149"/>
      <point x="219" y="523"/>
      <point x="219" y="641" type="curve" smooth="yes"/>
      <point x="219" y="700"/>
      <point x="133" y="759"/>
      <point x="80" y="759" type="curve"/>
      <point x="74" y="759" type="line"/>
      <point x="81" y="716"/>
      <point x="84" y="677"/>
      <point x="84" y="636" type="curve" smooth="yes"/>
      <point x="84" y="519"/>
      <point x="44" y="180"/>
      <point x="44" y="102" type="curve" smooth="yes"/>
      <point x="44" y="42"/>
      <point x="125" y="-11"/>
      <point x="175" y="-11" type="curve"/>
    </contour>
    <contour>
      <point x="161" y="89" type="line"/>
      <point x="205" y="20"/>
      <point x="259" y="-18"/>
      <point x="334.0" y="-18.0" type="curve" smooth="yes"/>
      <point x="446" y="-18"/>
      <point x="568.0" y="77.0"/>
      <point x="569.0" y="346.0" type="curve"/>
      <point x="569.0" y="349.0" type="line"/>
      <point x="569.0" y="411.0"/>
      <point x="543" y="462"/>
      <point x="490" y="473" type="curve"/>
      <point x="474" y="534"/>
      <point x="438" y="555"/>
      <point x="401.0" y="555.0" type="curve" smooth="yes"/>
      <point x="303" y="555"/>
      <point x="231.0" y="443.0"/>
      <point x="183.0" y="350.0" type="curve"/>
      <point x="183.0" y="239.0" type="line"/>
      <point x="271.0" y="351.0"/>
      <point x="365.0" y="407.0"/>
      <point x="441.0" y="407.0" type="curve" smooth="yes"/>
      <point x="470.0" y="407.0"/>
      <point x="487.0" y="409.0"/>
      <point x="504.0" y="376.0" type="curve"/>
      <point x="500.0" y="436.0" type="line"/>
      <point x="417.0" y="437.0" type="line"/>
      <point x="421.0" y="414.0"/>
      <point x="423.0" y="391.0"/>
      <point x="423.0" y="368.0" type="curve" smooth="yes"/>
      <point x="423.0" y="366.0" type="line" smooth="yes"/>
      <point x="423.0" y="191.0"/>
      <point x="360.0" y="84.0"/>
      <point x="274.0" y="84.0" type="curve" smooth="yes"/>
      <point x="228.0" y="84.0"/>
      <point x="203.0" y="105.0"/>
      <point x="173.0" y="157.0" type="curve"/>
      <point x="129" y="89" type="line"/>
    </contour>
  </outline>
</glyph>
<glyph name="c" format="1">
  <advance width="600"/>
  <unicode hex="0063"/>
  <outline>
    <contour>
      <point x="536" y="304"/>
      <point x="552.0" y="375.43065693430657"/>
      <point x="552.0" y="442.0" type="curve" smooth="yes"/>
      <point x="552.0" y="470.0"/>
      <point x="531" y="498"/>
      <point x="484" y="496" type="curve"/>
      <point x="472" y="536"/>
      <point x="435.0" y="548.0"/>
      <point x="398.0" y="548.0" type="curve" smooth="yes"/>
      <point x="229.0" y="548.0"/>
      <point x="56.0" y="422.0"/>
      <point x="56.0" y="193.0" type="curve" smooth="yes"/>
      <point x="56.0" y="190.0" type="line" smooth="yes"/>
      <point x="56.0" y="144.0"/>
      <point x="80" y="99"/>
      <point x="139" y="73" type="curve"/>
      <point x="162" y="12"/>
      <point x="213" y="-25"/>
      <point x="259" y="-25" type="curve" smooth="yes"/>
      <point x="419.0" y="-25.0"/>
      <point x="437" y="34"/>
      <point x="437" y="86" type="curve" smooth="yes"/>
      <point x="437" y="120"/>
      <point x="428" y="149"/>
      <point x="414" y="180" type="curve"/>
      <point x="399" y="180" type="line"/>
      <point x="390" y="116"/>
      <point x="344.0" y="109.0"/>
      <point x="267.0" y="109.0" type="curve" smooth="yes"/>
      <point x="215.0" y="109.0"/>
      <point x="191.0" y="119.0"/>
      <point x="160.0" y="146.0" type="curve"/>
      <point x="155.0" y="87.0" type="line"/>
      <point x="201.0" y="89.0" type="line"/>
      <point x="187.0" y="133.0"/>
      <point x="186.0" y="147.0"/>
      <point x="186.0" y="162.0" type="curve" smooth="yes"/>
      <point x="186.0" y="166.0" type="line" smooth="yes"/>
      <point x="186.0" y="315.0"/>
      <point x="270.0" y="435.0"/>
      <point x="393.0" y="435.0" type="curve" smooth="yes"/>
      <point x="423.0" y="435.0"/>
      <point x="439.0" y="430.0"/>
      <point x="456.0" y="417.0" type="curve"/>
      <point x="471.0" y="456.0" type="line"/>
      <point x="452" y="466" type="line"/>
      <point x="416.7868154643639" y="418.2918145001059"/>
      <point x="406" y="356"/>
      <point x="406" y="308" type="curve" smooth="yes"/>
      <point x="406" y="283"/>
      <point x="444" y="252"/>
      <point x="520" y="252" type="curve"/>
      <point x="536" y="252" type="line"/>
    </contour>
  </outline>
</glyph>
<glyph name="e" format="1">
  <advance width="600"/>
  <unicode hex="0065"/>
  <outline>
    <contour>
      <point x="182.0" y="330.0" type="curve"/>
      <point x="182.0" y="315.0" type="line"/>
      <point x="196.0" y="243.0"/>
      <point x="203.0" y="216.0"/>
      <point x="275.0" y="216.0" type="curve" smooth="yes"/>
      <point x="482.0" y="216.0"/>
      <point x="545.0" y="306.0"/>
      <point x="545.0" y="396.0" type="curve" smooth="yes"/>
      <point x="545.0" y="399.0" type="line" smooth="yes"/>
      <point x="545.0" y="427.0"/>
      <point x="529" y="463"/>
      <point x="480" y="473" type="curve"/>
      <point x="473" y="524"/>
      <point x="432.0" y="548.0"/>
      <point x="384.0" y="548.0" type="curve" smooth="yes"/>
      <point x="231.0" y="548.0"/>
      <point x="56.0" y="426.0"/>
      <point x="56.0" y="203.0" type="curve" smooth="yes"/>
      <point x="56.0" y="190.0" type="line" smooth="yes"/>
      <point x="56.0" y="135.0"/>
      <point x="73.0" y="89.0"/>
      <point x="141.0" y="81.0" type="curve"/>
      <point x="144.0" y="3.0"/>
      <point x="211.0" y="-25.0"/>
      <point x="287.0" y="-25.0" type="curve" smooth="yes"/>
      <point x="432.0" y="-25.0"/>
      <point x="545.0" y="46.0"/>
      <point x="545.0" y="104.0" type="curve" smooth="yes"/>
      <point x="545.0" y="151.0"/>
      <point x="540.0" y="171.0"/>
      <point x="517.0" y="198.0" type="curve"/>
      <point x="512.0" y="198.0" type="line"/>
      <point x="434.0" y="132.0"/>
      <point x="342.0" y="114.0"/>
      <point x="264.0" y="114.0" type="curve" smooth="yes"/>
      <point x="213.0" y="114.0"/>
      <point x="189.0" y="121.0"/>
      <point x="160.0" y="146.0" type="curve"/>
      <point x="155.0" y="87.0" type="line"/>
      <point x="196.0" y="89.0" type="line"/>
      <point x="187.0" y="133.0"/>
      <point x="186.0" y="147.0"/>
      <point x="186.0" y="162.0" type="curve" smooth="yes"/>
      <point x="186.0" y="174.0" type="line" smooth="yes"/>
      <point x="186.0" y="320.0"/>
      <point x="271.0" y="437.0"/>
      <point x="391.0" y="437.0" type="curve" smooth="yes"/>
      <point x="422.0" y="437.0"/>
      <point x="447.0" y="434.0"/>
      <point x="456.0" y="417.0" type="curve"/>
      <point x="471.0" y="456.0" type="line"/>
      <point x="438.0" y="470.0" type="line"/>
      <point x="445.0" y="461.0"/>
      <point x="448.0" y="451.0"/>
      <point x="448.0" y="441.0" type="curve" smooth="yes"/>
      <point x="448.0" y="371.0"/>
      <point x="395.0" y="327.0"/>
      <point x="256.0" y="327.0" type="curve" smooth="yes"/>
      <point x="233.0" y="327.0"/>
      <point x="209.0" y="328.0"/>
    </contour>
  </outline>
</glyph>
<glyph name="g" format="1">
  <advance width="600"/>
  <unicode hex="0067"/>
  <outline>
    <contour>
      <point x="545" y="521" type="curve" smooth="yes"/>
      <point x="519" y="547"/>
      <point x="478.0" y="555.0"/>
      <point x="365.0" y="555.0" type="curve" smooth="yes"/>
      <point x="180.0" y="555.0"/>
      <point x="59.0" y="489.0"/>
      <point x="59.0" y="371.0" type="curve" smooth="yes"/>
      <point x="59.0" y="362.0" type="line" smooth="yes"/>
      <point x="59" y="318"/>
      <point x="72" y="290"/>
      <point x="108" y="261" type="curve"/>
      <point x="126" y="174"/>
      <point x="206.0" y="121.0"/>
      <point x="311.0" y="121.0" type="curve" smooth="yes"/>
      <point x="422.0" y="121.0"/>
      <point x="511.0" y="189.0"/>
      <point x="511.0" y="276.0" type="curve" smooth="yes"/>
      <point x="511.0" y="284.0" type="line" smooth="yes"/>
      <point x="511.0" y="370.0"/>
      <point x="462.0" y="413.0"/>
      <point x="377.0" y="464.0" type="curve"/>
      <point x="377.0" y="483.0" type="line"/>
      <point x="296.0" y="457.0" type="line"/>
      <point x="370.0" y="420.0"/>
      <point x="409.0" y="374.0"/>
      <point x="409.0" y="331.0" type="curve" smooth="yes"/>
      <point x="409.0" y="273.0"/>
      <point x="347.0" y="230.0"/>
      <point x="263.0" y="230.0" type="curve" smooth="yes"/>
      <point x="212.0" y="230.0"/>
      <point x="182" y="250"/>
      <point x="133" y="279" type="curve"/>
      <point x="146" y="238" type="line"/>
      <point x="180" y="238" type="line"/>
      <point x="162" y="260"/>
      <point x="157" y="274"/>
      <point x="157" y="300" type="curve" smooth="yes"/>
      <point x="157" y="389"/>
      <point x="229.0" y="443.0"/>
      <point x="369.0" y="443.0" type="curve" smooth="yes"/>
      <point x="444.0" y="443.0"/>
      <point x="504" y="437"/>
      <point x="579" y="424" type="curve"/>
      <point x="585.0" y="424.0" type="line"/>
      <point x="585" y="431" type="line"/>
      <point x="585" y="469"/>
      <point x="569" y="497"/>
    </contour>
    <contour>
      <point x="183.0" y="186.0" type="line"/>
      <point x="78.0" y="140.0"/>
      <point x="40.0" y="68.0"/>
      <point x="40.0" y="17.0" type="curve" smooth="yes"/>
      <point x="40.0" y="-5.0"/>
      <point x="51.0" y="-32.0"/>
      <point x="82.0" y="-41.0" type="curve"/>
      <point x="87.0" y="-83.0"/>
      <point x="116.0" y="-105.0"/>
      <point x="144.0" y="-105.0" type="curve" smooth="yes"/>
      <point x="236.0" y="-105.0"/>
      <point x="310.0" y="-87.0"/>
      <point x="386.0" y="-87.0" type="curve" smooth="yes"/>
      <point x="423.0" y="-87.0"/>
      <point x="444.0" y="-94.0"/>
      <point x="468.0" y="-112.0" type="curve"/>
      <point x="437" y="-49" type="line"/>
      <point x="437" y="-109"/>
      <point x="414" y="-159"/>
      <point x="369" y="-205" type="curve"/>
      <point x="369" y="-208" type="line"/>
      <point x="464" y="-208"/>
      <point x="561" y="-174"/>
      <point x="561" y="-111" type="curve" smooth="yes"/>
      <point x="561" y="-83"/>
      <point x="551" y="-61"/>
      <point x="517" y="-54" type="curve"/>
      <point x="524" y="-15"/>
      <point x="506.0" y="3.0"/>
      <point x="501.0" y="8.0" type="curve" smooth="yes"/>
      <point x="480.0" y="29.0"/>
      <point x="461.0" y="36.0"/>
      <point x="384.0" y="36.0" type="curve" smooth="yes"/>
      <point x="315.0" y="36.0"/>
      <point x="197.0" y="16.0"/>
      <point x="118.0" y="16.0" type="curve"/>
      <point x="169.0" y="-3.0" type="line"/>
      <point x="162.0" y="14.0"/>
      <point x="160.0" y="21.0"/>
      <point x="160.0" y="45.0" type="curve" smooth="yes"/>
      <point x="160.0" y="73.0"/>
      <point x="178.0" y="124.0"/>
      <point x="205.0" y="152.0" type="curve"/>
    </contour>
  </outline>
</glyph>
<glyph name="h" format="1">
  <advance width="600"/>
  <unicode hex="0068"/>
  <outline>
    <contour>
      <point x="170" y="426" type="curve"/>
      <point x="169" y="404"/>
      <point x="165" y="378"/>
      <point x="172" y="315" type="curve"/>
      <point x="250" y="381"/>
      <point x="319" y="407"/>
      <point x="434" y="425" type="curve"/>
      <point x="407" y="455" type="line"/>
      <point x="399" y="299"/>
      <point x="376" y="166"/>
      <point x="376" y="68" type="curve" smooth="yes"/>
      <point x="376" y="24"/>
      <point x="449" y="-20"/>
      <point x="502" y="-20" type="curve"/>
      <point x="521" y="-20" type="line"/>
      <point x="514" y="23"/>
      <point x="511" y="62"/>
      <point x="511" y="103" type="curve" smooth="yes"/>
      <point x="511" y="225"/>
      <point x="544" y="356"/>
      <point x="544" y="459" type="curve" smooth="yes"/>
      <point x="544" y="499"/>
      <point x="475" y="543"/>
      <point x="422" y="543" type="curve" smooth="yes"/>
      <point x="360" y="543"/>
      <point x="284" y="514"/>
    </contour>
    <contour>
      <point x="94" y="759" type="line"/>
      <point x="94.0" y="589.1689708141321"/>
      <point x="56" y="193"/>
      <point x="56" y="68" type="curve" smooth="yes"/>
      <point x="56" y="29"/>
      <point x="129.0" y="-10.0"/>
      <point x="182" y="-10" type="curve"/>
      <point x="201" y="-10" type="line"/>
      <point x="194" y="33"/>
      <point x="191" y="72"/>
      <point x="191" y="113" type="curve" smooth="yes"/>
      <point x="191" y="229"/>
      <point x="231" y="568"/>
      <point x="231" y="646" type="curve" smooth="yes"/>
      <point x="231" y="706"/>
      <point x="167" y="752"/>
      <point x="114" y="759" type="curve"/>
    </contour>
  </outline>
</glyph>
<glyph name="j" format="1">
  <advance width="600"/>
  <unicode hex="006A"/>
  <outline>
    <contour>
      <point x="350" y="771" type="curve" smooth="yes"/>
      <point x="324" y="771"/>
      <point x="306" y="720"/>
      <point x="306" y="649" type="curve" smooth="yes"/>
      <point x="306" y="613"/>
      <point x="344" y="596"/>
      <point x="448" y="596" type="curve" smooth="yes"/>
      <point x="482" y="596"/>
      <point x="502" y="644"/>
      <point x="502" y="726" type="curve" smooth="yes"/>
      <point x="502" y="753"/>
      <point x="446" y="771"/>
    </contour>
    <contour>
      <point x="81" y="540" type="curve"/>
      <point x="75" y="531"/>
      <point x="73" y="521"/>
      <point x="73" y="507" type="curve"/>
      <point x="73" y="461"/>
      <point x="97" y="379"/>
      <point x="158" y="379" type="curve" smooth="yes"/>
      <point x="234" y="379"/>
      <point x="311" y="439"/>
      <point x="392" y="417" type="curve"/>
      <point x="407" y="417"/>
      <point x="413" y="418"/>
      <point x="429" y="415" type="curve"/>
      <point x="431" y="486"/>
      <point x="410" y="530"/>
      <point x="381" y="530" type="curve" smooth="yes"/>
      <point x="339" y="530"/>
      <point x="146" y="519"/>
    </contour>
    <contour>
      <point x="315" y="-125" type="curve"/>
      <point x="373" y="-57" type="line"/>
      <point x="310" y="-71"/>
      <point x="241" y="-77"/>
      <point x="184" y="-77" type="curve" smooth="yes"/>
      <point x="137" y="-77"/>
      <point x="70" y="-68"/>
      <point x="37" y="-54" type="curve"/>
      <point x="37" y="-57" type="line"/>
      <point x="37" y="-147"/>
      <point x="90" y="-241"/>
      <point x="164" y="-241" type="curve" smooth="yes"/>
      <point x="258" y="-241"/>
      <point x="382" y="-200"/>
      <point x="412" y="-184" type="curve" smooth="yes"/>
      <point x="433" y="-172"/>
      <point x="449" y="-159"/>
      <point x="449" y="-126" type="curve"/>
      <point x="483" y="-119"/>
      <point x="495" y="-96"/>
      <point x="499" y="-53" type="curve" smooth="yes"/>
      <point x="511" y="58"/>
      <point x="509" y="258"/>
      <point x="495" y="412" type="curve" smooth="yes"/>
      <point x="492" y="446"/>
      <point x="476" y="469"/>
      <point x="449" y="476" type="curve"/>
      <point x="443" y="513"/>
      <point x="411" y="530"/>
      <point x="381" y="530" type="curve"/>
      <point x="363" y="524" type="line"/>
      <point x="369" y="488"/>
      <point x="372" y="452"/>
      <point x="372" y="407" type="curve" smooth="yes"/>
      <point x="372" y="258"/>
      <point x="355" y="48"/>
    </contour>
  </outline>
</glyph>
<glyph name="l" format="1">
  <advance width="600"/>
  <unicode hex="006C"/>
  <outline>
    <contour>
      <point x="297.0" y="759.0" type="line"/>
      <point x="297.0" y="592.0"/>
      <point x="243.0" y="231.0"/>
      <point x="243.0" y="111.0" type="curve" smooth="yes"/>
      <point x="243.0" y="46.0"/>
      <point x="322.0" y="2.0"/>
      <point x="386.0" y="2.0" type="curve"/>
      <point x="392.0" y="2.0" type="line"/>
      <point x="385.0" y="45.0"/>
      <point x="382.0" y="84.0"/>
      <point x="382.0" y="125.0" type="curve" smooth="yes"/>
      <point x="382.0" y="238.0"/>
      <point x="454" y="561"/>
      <point x="454" y="625" type="curve" smooth="yes"/>
      <point x="454" y="672"/>
      <point x="432" y="698"/>
      <point x="389" y="706" type="curve"/>
      <point x="381" y="743"/>
      <point x="340.0" y="759.0"/>
      <point x="301.0" y="759.0" type="curve"/>
    </contour>
    <contour>
      <point x="72" y="769" type="curve"/>
      <point x="66" y="760"/>
      <point x="64" y="750"/>
      <point x="64" y="736" type="curve"/>
      <point x="64" y="690"/>
      <point x="88" y="638"/>
      <point x="130" y="638" type="curve" smooth="yes"/>
      <point x="207.875" y="638.0"/>
      <point x="255.55357142857144" y="664.0"/>
      <point x="308" y="664" type="curve" smooth="yes"/>
      <point x="323" y="664"/>
      <point x="329" y="665"/>
      <point x="345" y="662" type="curve"/>
      <point x="347" y="733"/>
      <point x="326" y="759"/>
      <point x="297" y="759" type="curve" smooth="yes"/>
      <point x="237.56603773584905" y="759.0"/>
      <point x="161.7786946435992" y="739.9945755766834"/>
    </contour>
    <contour>
      <point x="39" y="155" type="curve"/>
      <point x="34" y="147"/>
      <point x="32" y="141"/>
      <point x="32" y="131" type="curve"/>
      <point x="32" y="62"/>
      <point x="75" y="-8"/>
      <point x="139" y="-8" type="curve" smooth="yes"/>
      <point x="198.31578947368422" y="-8.0"/>
      <point x="360.7894736842105" y="0.0"/>
      <point x="433" y="0" type="curve" smooth="yes"/>
      <point x="484" y="0"/>
      <point x="514" y="-3"/>
      <point x="556" y="-10" type="curve"/>
      <point x="560" y="-3"/>
      <point x="561" y="5"/>
      <point x="561" y="14" type="curve"/>
      <point x="561" y="83"/>
      <point x="516" y="119"/>
      <point x="472" y="119" type="curve" smooth="yes"/>
      <point x="421" y="119"/>
      <point x="401" y="116"/>
      <point x="335" y="115" type="curve" smooth="yes"/>
      <point x="226.90778715459476" y="112.4263758846332"/>
      <point x="96.46528059585575" y="131.2643406234509"/>
    </contour>
  </outline>
</glyph>
<glyph name="m" format="1">
  <advance width="600"/>
  <unicode hex="006D"/>
  <outline>
    <contour>
      <point x="135" y="426" type="curve"/>
      <point x="134" y="404"/>
      <point x="130.0" y="378.0"/>
      <point x="137.0" y="315.0" type="curve"/>
      <point x="193.0" y="398.0"/>
      <point x="207.0" y="416.0"/>
      <point x="289.0" y="439.0" type="curve"/>
      <point x="266.0" y="455.0" type="line"/>
      <point x="266.0" y="286.0"/>
      <point x="229.0" y="199.0"/>
      <point x="229.0" y="68.0" type="curve" smooth="yes"/>
      <point x="229.0" y="24.0"/>
      <point x="272.0" y="-20.0"/>
      <point x="336.0" y="-20.0" type="curve"/>
      <point x="344.0" y="-20.0" type="line"/>
      <point x="337.0" y="23.0"/>
      <point x="334.0" y="62.0"/>
      <point x="334.0" y="103.0" type="curve" smooth="yes"/>
      <point x="334.0" y="225.0"/>
      <point x="369.0" y="356.0"/>
      <point x="369.0" y="459.0" type="curve" smooth="yes"/>
      <point x="369.0" y="482.0"/>
      <point x="359" y="501"/>
      <point x="330" y="505" type="curve"/>
      <point x="326" y="533"/>
      <point x="300" y="543"/>
      <point x="277" y="543" type="curve" smooth="yes"/>
      <point x="231" y="543"/>
      <point x="188" y="518"/>
    </contour>
    <contour>
      <point x="66" y="550" type="line"/>
      <point x="66" y="374"/>
      <point x="23" y="242"/>
      <point x="23" y="82" type="curve" smooth="yes"/>
      <point x="23.0" y="19.0"/>
      <point x="79.25581395348837" y="-20.0"/>
      <point x="146" y="-20" type="curve"/>
      <point x="153" y="-20" type="line"/>
      <point x="146" y="23"/>
      <point x="143" y="62"/>
      <point x="143" y="103" type="curve" smooth="yes"/>
      <point x="143.0" y="225.0"/>
      <point x="166.0" y="356.0"/>
      <point x="166" y="459" type="curve" smooth="yes"/>
      <point x="166.0" y="499.0"/>
      <point x="112" y="550"/>
      <point x="75" y="550" type="curve"/>
    </contour>
    <contour>
      <point x="326" y="427" type="curve"/>
      <point x="325" y="408"/>
      <point x="322.0578328961202" y="386.479503934918"/>
      <point x="328" y="333" type="curve"/>
      <point x="381.07703294894225" y="377.9113355721819"/>
      <point x="407" y="415"/>
      <point x="470" y="433" type="curve"/>
      <point x="456" y="455" type="line"/>
      <point x="447.84083422731584" y="295.89626743265893"/>
      <point x="418" y="160"/>
      <point x="418" y="60" type="curve" smooth="yes"/>
      <point x="418" y="5"/>
      <point x="493.6134969325153" y="-20.0"/>
      <point x="563" y="-20" type="curve"/>
      <point x="569" y="-20" type="line"/>
      <point x="550" y="23"/>
      <point x="547" y="62"/>
      <point x="547" y="103" type="curve" smooth="yes"/>
      <point x="547" y="225"/>
      <point x="580" y="356"/>
      <point x="580" y="421" type="curve" smooth="yes"/>
      <point x="580" y="469"/>
      <point x="562" y="492"/>
      <point x="518" y="496" type="curve"/>
      <point x="514" y="532"/>
      <point x="484" y="543"/>
      <point x="458" y="543" type="curve" smooth="yes"/>
      <point x="425.5238095238095" y="543.0"/>
      <point x="392" y="514"/>
    </contour>
  </outline>
</glyph>
<glyph name="o" format="1">
  <advance width="600"/>
  <unicode hex="006F"/>
  <outline>
    <contour>
      <point x="179" y="100" type="line"/>
      <point x="181" y="53"/>
      <point x="247.0" y="-25.0"/>
      <point x="297.0" y="-25.0" type="curve" smooth="yes"/>
      <point x="441.0" y="-25.0"/>
      <point x="558.0" y="92.0"/>
      <point x="558.0" y="266.0" type="curve" smooth="yes"/>
      <point x="558.0" y="273.0" type="line" smooth="yes"/>
      <point x="558.0" y="377.0"/>
      <point x="502" y="477"/>
      <point x="422" y="489" type="curve"/>
      <point x="403" y="532"/>
      <point x="359.0" y="548.0"/>
      <point x="318.0" y="548.0" type="curve"/>
      <point x="385.0" y="464.0" type="line"/>
      <point x="406.0" y="432.0"/>
      <point x="425.0" y="389.0"/>
      <point x="425.0" y="304.0" type="curve" smooth="yes"/>
      <point x="425.0" y="297.0" type="line" smooth="yes"/>
      <point x="425.0" y="197.0"/>
      <point x="374.0" y="85.0"/>
      <point x="278.0" y="85.0" type="curve" smooth="yes"/>
      <point x="235.0" y="85.0"/>
      <point x="216.0" y="90.0"/>
      <point x="185.0" y="103.0" type="curve"/>
    </contour>
    <contour>
      <point x="436" y="423" type="line"/>
      <point x="434" y="470"/>
      <point x="368" y="548"/>
      <point x="318" y="548" type="curve" smooth="yes"/>
      <point x="174" y="548"/>
      <point x="57" y="431"/>
      <point x="57" y="257" type="curve" smooth="yes"/>
      <point x="57" y="250" type="line" smooth="yes"/>
      <point x="57" y="146"/>
      <point x="113" y="46"/>
      <point x="193" y="34" type="curve"/>
      <point x="212" y="-9"/>
      <point x="256" y="-25"/>
      <point x="297" y="-25" type="curve"/>
      <point x="230" y="59" type="line"/>
      <point x="209" y="91"/>
      <point x="190" y="134"/>
      <point x="190" y="219" type="curve" smooth="yes"/>
      <point x="190" y="226" type="line" smooth="yes"/>
      <point x="190" y="326"/>
      <point x="241" y="438"/>
      <point x="337" y="438" type="curve" smooth="yes"/>
      <point x="380" y="438"/>
      <point x="399" y="433"/>
      <point x="430" y="420" type="curve"/>
    </contour>
  </outline>
</glyph>
<glyph name="p" format="1">
  <advance width="600"/>
  <unicode hex="0070"/>
  <outline>
    <contour>
      <point x="148.0" y="73.0" type="line"/>
      <point x="202.0" y="20.0"/>
      <point x="245.0" y="-18.0"/>
      <point x="334.0" y="-18.0" type="curve" smooth="yes"/>
      <point x="445.0" y="-18.0"/>
      <point x="569.0" y="77.0"/>
      <point x="569.0" y="344.0" type="curve" smooth="yes"/>
      <point x="569.0" y="349.0" type="line" smooth="yes"/>
      <point x="569.0" y="408.0"/>
      <point x="545" y="457"/>
      <point x="491" y="468" type="curve"/>
      <point x="478" y="532"/>
      <point x="433.0" y="555.0"/>
      <point x="401.0" y="555.0" type="curve" smooth="yes"/>
      <point x="303.0" y="555.0"/>
      <point x="231.0" y="443.0"/>
      <point x="183.0" y="350.0" type="curve"/>
      <point x="183.0" y="239.0" type="line"/>
      <point x="271.0" y="351.0"/>
      <point x="365.0" y="407.0"/>
      <point x="441.0" y="407.0" type="curve" smooth="yes"/>
      <point x="470.0" y="407.0"/>
      <point x="487.0" y="409.0"/>
      <point x="504.0" y="376.0" type="curve"/>
      <point x="500.0" y="436.0" type="line"/>
      <point x="417.0" y="437.0" type="line"/>
      <point x="421.0" y="414.0"/>
      <point x="423.0" y="391.0"/>
      <point x="423.0" y="368.0" type="curve" smooth="yes"/>
      <point x="423.0" y="362.0" type="line" smooth="yes"/>
      <point x="423.0" y="190.0"/>
      <point x="359.0" y="84.0"/>
      <point x="274.0" y="84.0" type="curve" smooth="yes"/>
      <point x="228.0" y="84.0"/>
      <point x="203.0" y="105.0"/>
      <point x="173.0" y="157.0" type="curve"/>
      <point x="118.0" y="73.0" type="line"/>
    </contour>
    <contour>
      <point x="213" y="-241" type="line"/>
      <point x="155" y="-23"/>
      <point x="206" y="215"/>
      <point x="206" y="422" type="curve" smooth="yes"/>
      <point x="206" y="481"/>
      <point x="148" y="540"/>
      <point x="82" y="540" type="curve"/>
      <point x="76" y="540" type="line"/>
      <point x="83" y="497"/>
      <point x="86" y="458"/>
      <point x="86" y="417" type="curve" smooth="yes"/>
      <point x="86" y="298"/>
      <point x="34" y="26"/>
      <point x="34" y="-128" type="curve" smooth="yes"/>
      <point x="34" y="-219"/>
      <point x="156" y="-241"/>
      <point x="207" y="-241" type="curve"/>
    </contour>
  </outline>
</glyph>
<glyph name="q" format="1">
  <advance width="600"/>
  <unicode hex="0071"/>
  <outline>
    <contour>
      <point x="454.0" y="425.0" type="line"/>
      <point x="406.0" y="500.0"/>
      <point x="357.0" y="548.0"/>
      <point x="268.0" y="548.0" type="curve" smooth="yes"/>
      <point x="157.0" y="548.0"/>
      <point x="33.0" y="454.0"/>
      <point x="33.0" y="189.0" type="curve" smooth="yes"/>
      <point x="33.0" y="181.0" type="line" smooth="yes"/>
      <point x="33.0" y="128.0"/>
      <point x="52" y="83"/>
      <point x="107" y="72" type="curve"/>
      <point x="115" y="2"/>
      <point x="166.0" y="-25.0"/>
      <point x="201.0" y="-25.0" type="curve" smooth="yes"/>
      <point x="303.0" y="-25.0"/>
      <point x="382.0" y="80.0"/>
      <point x="429.0" y="170.0" type="curve"/>
      <point x="429.0" y="281.0" type="line"/>
      <point x="343.0" y="171.0"/>
      <point x="240.0" y="123.0"/>
      <point x="161.0" y="123.0" type="curve" smooth="yes"/>
      <point x="132.0" y="123.0"/>
      <point x="115.0" y="121.0"/>
      <point x="98.0" y="154.0" type="curve"/>
      <point x="102.0" y="94.0" type="line"/>
      <point x="185.0" y="93.0" type="line"/>
      <point x="181.0" y="116.0"/>
      <point x="179.0" y="139.0"/>
      <point x="179.0" y="162.0" type="curve" smooth="yes"/>
      <point x="179.0" y="171.0" type="line" smooth="yes"/>
      <point x="179.0" y="342.0"/>
      <point x="244.0" y="446.0"/>
      <point x="328.0" y="446.0" type="curve" smooth="yes"/>
      <point x="359.0" y="446.0"/>
      <point x="393.0" y="416.0"/>
      <point x="429.0" y="353.0" type="curve"/>
      <point x="487.0" y="425.0" type="line"/>
    </contour>
    <contour>
      <point x="559" y="-241" type="line"/>
      <point x="501" y="-23"/>
      <point x="552" y="239"/>
      <point x="552" y="446" type="curve" smooth="yes"/>
      <point x="552" y="505"/>
      <point x="494" y="540"/>
      <point x="435" y="540" type="curve"/>
      <point x="429" y="540" type="line"/>
      <point x="429" y="497"/>
      <point x="432" y="458"/>
      <point x="432" y="417" type="curve" smooth="yes"/>
      <point x="432" y="298"/>
      <point x="380" y="26"/>
      <point x="380" y="-128" type="curve" smooth="yes"/>
      <point x="380" y="-219"/>
      <point x="502" y="-241"/>
      <point x="553" y="-241" type="curve"/>
    </contour>
  </outline>
</glyph>
<glyph name="s" format="1">
  <advance width="600"/>
  <unicode hex="0073"/>
  <outline>
    <contour>
      <point x="381" y="555" type="curve" smooth="yes"/>
      <point x="218" y="555"/>
      <point x="111" y="486"/>
      <point x="111" y="391" type="curve" smooth="yes"/>
      <point x="111" y="303"/>
      <point x="192.0" y="262.0"/>
      <point x="268.0" y="230.0" type="curve" smooth="yes"/>
      <point x="337.0" y="201.0" type="line" smooth="yes"/>
      <point x="376.0" y="185.0"/>
      <point x="403.0" y="167.0"/>
      <point x="417.0" y="147.0" type="curve"/>
      <point x="422.0" y="175.0" type="line"/>
      <point x="387" y="134"/>
      <point x="359.0" y="120.0"/>
      <point x="291" y="120" type="curve" smooth="yes"/>
      <point x="208.0" y="120.0"/>
      <point x="146" y="152"/>
      <point x="100.0" y="211.0" type="curve"/>
      <point x="82.0" y="211.0" type="line"/>
      <point x="68.0" y="181.0"/>
      <point x="63" y="161"/>
      <point x="63" y="125" type="curve" smooth="yes"/>
      <point x="63" y="23"/>
      <point x="166" y="-16"/>
      <point x="298" y="-16" type="curve" smooth="yes"/>
      <point x="426" y="-16"/>
      <point x="527" y="55"/>
      <point x="527" y="147" type="curve" smooth="yes"/>
      <point x="527" y="208"/>
      <point x="484.0" y="238.0"/>
      <point x="385.0" y="274.0" type="curve" smooth="yes"/>
      <point x="312" y="301" type="line" smooth="yes"/>
      <point x="239" y="328"/>
      <point x="220" y="349"/>
      <point x="211" y="393" type="curve"/>
      <point x="211.0" y="361.0" type="line"/>
      <point x="249.89528074686692" y="417.4907648942591"/>
      <point x="320.0" y="441.0"/>
      <point x="377" y="441" type="curve" smooth="yes"/>
      <point x="391" y="441"/>
      <point x="407" y="438"/>
      <point x="424" y="432" type="curve"/>
      <point x="414" y="487" type="line"/>
      <point x="397" y="466"/>
      <point x="388" y="431"/>
      <point x="388" y="395" type="curve" smooth="yes"/>
      <point x="388.0" y="353.0"/>
      <point x="441.47151249321513" y="319.3292731260177"/>
      <point x="497.0" y="311.0" type="curve"/>
      <point x="518.0" y="311.0" type="line"/>
      <point x="518" y="360"/>
      <point x="536.0" y="396.0"/>
      <point x="536.0" y="439.0" type="curve" smooth="yes"/>
      <point x="536.0" y="486.0"/>
      <point x="455" y="555"/>
    </contour>
  </outline>
</glyph>
<glyph name="t" format="1">
  <advance width="600"/>
  <unicode hex="0074"/>
  <outline>
    <contour>
      <point x="184.0" y="688.0" type="line"/>
      <point x="184.0" y="372.0"/>
      <point x="135.0" y="296.0"/>
      <point x="135.0" y="123.0" type="curve" smooth="yes"/>
      <point x="135.0" y="55.0"/>
      <point x="206.0" y="-19.0"/>
      <point x="267.0" y="-19.0" type="curve" smooth="yes"/>
      <point x="444.0" y="-19.0"/>
      <point x="560.0" y="64.0"/>
      <point x="560.0" y="91.0" type="curve" smooth="yes"/>
      <point x="560.0" y="136.0"/>
      <point x="547.0" y="169.0"/>
      <point x="535.0" y="199.0" type="curve"/>
      <point x="524.0" y="199.0" type="line"/>
      <point x="446" y="138"/>
      <point x="328" y="97"/>
      <point x="261" y="97" type="curve" smooth="yes"/>
      <point x="247" y="97"/>
      <point x="237" y="99"/>
      <point x="225" y="102" type="curve"/>
      <point x="283.0" y="66.0" type="line"/>
      <point x="280.0" y="93.0"/>
      <point x="276.0" y="120.0"/>
      <point x="276.0" y="146.0" type="curve" smooth="yes"/>
      <point x="276.0" y="291.0"/>
      <point x="337.0" y="432.0"/>
      <point x="337.0" y="594.0" type="curve" smooth="yes"/>
      <point x="337.0" y="634.0"/>
      <point x="257.0" y="681.0"/>
      <point x="201.0" y="689.0" type="curve"/>
    </contour>
    <contour>
      <point x="41.0" y="533.0" type="curve"/>
      <point x="41.0" y="518.0" type="line"/>
      <point x="48.0" y="482.0"/>
      <point x="82.0" y="414.0"/>
      <point x="123.0" y="414.0" type="curve"/>
      <point x="204.0" y="414.0"/>
      <point x="309.0" y="409.0"/>
      <point x="400.0" y="409.0" type="curve" smooth="yes"/>
      <point x="461.0" y="409.0"/>
      <point x="517.0" y="412.0"/>
      <point x="556.0" y="420.0" type="curve"/>
      <point x="556.0" y="439.0" type="line"/>
      <point x="534.0" y="481.0"/>
      <point x="503.0" y="510.0"/>
      <point x="472.0" y="538.0" type="curve"/>
      <point x="452.0" y="533.0"/>
      <point x="436.0" y="530.0"/>
      <point x="345.0" y="530.0" type="curve" smooth="yes"/>
      <point x="278.0" y="530.0"/>
      <point x="109.0" y="530.0"/>
    </contour>
  </outline>
</glyph>
<glyph name="u" format="1">
  <advance width="600"/>
  <unicode hex="0075"/>
  <outline>
    <contour>
      <point x="502" y="-20" type="line"/>
      <point x="502" y="156"/>
      <point x="545" y="288"/>
      <point x="545" y="448" type="curve" smooth="yes"/>
      <point x="545" y="511"/>
      <point x="475" y="550"/>
      <point x="392" y="550" type="curve"/>
      <point x="385" y="550" type="line"/>
      <point x="392" y="507"/>
      <point x="395" y="468"/>
      <point x="395" y="427" type="curve" smooth="yes"/>
      <point x="395" y="305"/>
      <point x="384" y="174"/>
      <point x="384" y="71" type="curve" smooth="yes"/>
      <point x="384" y="31"/>
      <point x="440" y="-20"/>
      <point x="495" y="-20" type="curve" smooth="yes"/>
    </contour>
    <contour>
      <point x="416" y="104" type="curve"/>
      <point x="417" y="126"/>
      <point x="421" y="152"/>
      <point x="414" y="215" type="curve"/>
      <point x="336" y="149"/>
      <point x="267" y="123"/>
      <point x="152" y="105" type="curve"/>
      <point x="166" y="75" type="line"/>
      <point x="174" y="231"/>
      <point x="238" y="296"/>
      <point x="238" y="441" type="curve" smooth="yes"/>
      <point x="238" y="512"/>
      <point x="161" y="550"/>
      <point x="59" y="550" type="curve"/>
      <point x="53" y="550" type="line"/>
      <point x="72" y="507"/>
      <point x="75" y="468"/>
      <point x="75" y="427" type="curve" smooth="yes"/>
      <point x="75" y="305"/>
      <point x="42" y="174"/>
      <point x="42" y="109" type="curve" smooth="yes"/>
      <point x="42" y="61"/>
      <point x="60" y="38"/>
      <point x="109" y="38" type="curve"/>
      <point x="108" y="-2"/>
      <point x="138" y="-13"/>
      <point x="164" y="-13" type="curve" smooth="yes"/>
      <point x="226" y="-13"/>
      <point x="302" y="16"/>
    </contour>
  </outline>
</glyph>
<glyph name="w" format="1">
  <advance width="600"/>
  <unicode hex="0077"/>
  <outline>
    <contour>
      <point x="23.0" y="550.0" type="line"/>
      <point x="23.0" y="283.0"/>
      <point x="63" y="83"/>
      <point x="105" y="41" type="curve" smooth="yes"/>
      <point x="117" y="29"/>
      <point x="132" y="25"/>
      <point x="148" y="22" type="curve"/>
      <point x="160" y="-7"/>
      <point x="175" y="-20"/>
      <point x="191.0" y="-20.0" type="curve"/>
      <point x="194.0" y="-20.0" type="line"/>
      <point x="193.0" y="96.0" type="line"/>
      <point x="160.0" y="189.0"/>
      <point x="142.0" y="257.0"/>
      <point x="142.0" y="479.0" type="curve" smooth="yes"/>
      <point x="142.0" y="509.0"/>
      <point x="91.0" y="544.0"/>
      <point x="43.0" y="550.0" type="curve"/>
    </contour>
    <contour>
      <point x="249" y="422" type="line"/>
      <point x="238" y="276"/>
      <point x="210" y="188"/>
      <point x="151" y="109" type="curve"/>
      <point x="191" y="-20" type="line"/>
      <point x="194" y="-20" type="line"/>
      <point x="220" y="-20"/>
      <point x="290" y="135"/>
      <point x="301" y="194" type="curve"/>
      <point x="342" y="363" type="line"/>
      <point x="257" y="422" type="line"/>
    </contour>
    <contour>
      <point x="249.0" y="422.0" type="line"/>
      <point x="297.0" y="194.0" type="line"/>
      <point x="319.0" y="100.0"/>
      <point x="350" y="37"/>
      <point x="387" y="33" type="curve"/>
      <point x="414" y="-12"/>
      <point x="438.0" y="-20.0"/>
      <point x="466.0" y="-20.0" type="curve"/>
      <point x="470.0" y="-20.0" type="line"/>
      <point x="427.0" y="92.0" type="line"/>
      <point x="388.0" y="174.0"/>
      <point x="359.0" y="266.0"/>
      <point x="342.0" y="363.0" type="curve" smooth="yes"/>
      <point x="337.0" y="390.0"/>
      <point x="291" y="422"/>
      <point x="257" y="422" type="curve"/>
    </contour>
    <contour>
      <point x="450" y="550" type="line"/>
      <point x="450" y="291"/>
      <point x="436" y="214"/>
      <point x="380" y="100" type="curve"/>
      <point x="466" y="-20" type="line"/>
      <point x="470" y="-20" type="line"/>
      <point x="516" y="-20"/>
      <point x="580" y="293"/>
      <point x="580" y="455" type="curve" smooth="yes"/>
      <point x="580" y="497"/>
      <point x="527" y="542"/>
      <point x="470" y="550" type="curve"/>
    </contour>
  </outline>
</glyph>
<glyph name="y" format="1">
  <advance width="600"/>
  <unicode hex="0079"/>
  <outline>
    <contour>
      <point x="39" y="550" type="line"/>
      <point x="71.05223703256283" y="283.21226234660946"/>
      <point x="145.31719568309865" y="108.68280431690135"/>
      <point x="190" y="64" type="curve" smooth="yes"/>
      <point x="224" y="30"/>
      <point x="294" y="10"/>
      <point x="344" y="10" type="curve"/>
      <point x="363" y="10" type="line"/>
      <point x="363" y="52"/>
      <point x="311" y="87"/>
      <point x="286" y="126" type="curve" smooth="yes"/>
      <point x="224.77202037623425" y="222.08082956344782"/>
      <point x="190.54251612652158" y="341.3643297669578"/>
      <point x="174" y="459" type="curve" smooth="yes"/>
      <point x="168" y="499"/>
      <point x="112" y="543"/>
      <point x="59" y="550" type="curve"/>
    </contour>
    <contour>
      <point x="426.0" y="550.0" type="line"/>
      <point x="391.0" y="239.0"/>
      <point x="318.0" y="14.0"/>
      <point x="175.0" y="-157.0" type="curve" smooth="yes"/>
      <point x="156.0" y="-179.0"/>
      <point x="182" y="-241"/>
      <point x="251" y="-241" type="curve"/>
      <point x="270" y="-241" type="line"/>
      <point x="289" y="-241"/>
      <point x="309" y="-222"/>
      <point x="335.0" y="-183.0" type="curve" smooth="yes"/>
      <point x="457" y="1"/>
      <point x="556.0" y="290.0"/>
      <point x="556.0" y="459.0" type="curve" smooth="yes"/>
      <point x="556.0" y="500.0"/>
      <point x="499.0" y="543.0"/>
      <point x="446.0" y="550.0" type="curve"/>
    </contour>
    <contour>
      <point x="136" y="-73" type="curve"/>
      <point x="117" y="-73" type="line"/>
      <point x="117" y="-111"/>
      <point x="126" y="-174"/>
      <point x="148" y="-196" type="curve" smooth="yes"/>
      <point x="160" y="-208"/>
      <point x="189" y="-241"/>
      <point x="251" y="-241" type="curve"/>
      <point x="258" y="-134" type="line"/>
      <point x="224" y="-109"/>
      <point x="188" y="-92"/>
    </contour>
  </outline>
</glyph>
<glyph name="b.ver.001" format="1">
  <advance width="600"/>
  <note>
    Version created Wed Feb 21 21:16:06 2018
  </note>
  <outline>
    <contour>
      <point x="181" y="-11" type="line"/>
      <point x="181" y="149"/>
      <point x="219" y="523"/>
      <point x="219" y="641" type="curve" smooth="yes"/>
      <point x="219" y="700"/>
      <point x="146" y="759"/>
      <point x="93" y="759" type="curve"/>
      <point x="74" y="759" type="line"/>
      <point x="81" y="716"/>
      <point x="84" y="677"/>
      <point x="84" y="636" type="curve" smooth="yes"/>
      <point x="84" y="519"/>
      <point x="44" y="180"/>
      <point x="44" y="102" type="curve" smooth="yes"/>
      <point x="44" y="42"/>
      <point x="108" y="-4"/>
      <point x="161" y="-11" type="curve"/>
    </contour>
    <contour>
      <point x="148" y="73" type="line"/>
      <point x="202" y="20"/>
      <point x="245" y="-18"/>
      <point x="334" y="-18" type="curve" smooth="yes"/>
      <point x="446" y="-18"/>
      <point x="569" y="78"/>
      <point x="569" y="349" type="curve" smooth="yes"/>
      <point x="569" y="474"/>
      <point x="462" y="555"/>
      <point x="401" y="555" type="curve" smooth="yes"/>
      <point x="303" y="555"/>
      <point x="231" y="443"/>
      <point x="183" y="350" type="curve"/>
      <point x="183" y="239" type="line"/>
      <point x="271" y="351"/>
      <point x="365" y="407"/>
      <point x="441" y="407" type="curve" smooth="yes"/>
      <point x="470" y="407"/>
      <point x="487" y="409"/>
      <point x="504" y="376" type="curve"/>
      <point x="500" y="436" type="line"/>
      <point x="417" y="437" type="line"/>
      <point x="421" y="414"/>
      <point x="423" y="391"/>
      <point x="423" y="368" type="curve" smooth="yes"/>
      <point x="423" y="192"/>
      <point x="360" y="84"/>
      <point x="274" y="84" type="curve" smooth="yes"/>
      <point x="228" y="84"/>
      <point x="203" y="105"/>
      <point x="173" y="157" type="curve"/>
    </contour>
  </outline>
</glyph>
<glyph name="c.tester" format="1">
  <advance width="600"/>
  <outline>
    <contour>
      <point x="536" y="304"/>
      <point x="552" y="375"/>
      <point x="552" y="442" type="curve" smooth="yes"/>
      <point x="552" y="470"/>
      <point x="531" y="498"/>
      <point x="484" y="496" type="curve"/>
      <point x="472" y="536"/>
      <point x="435" y="548"/>
      <point x="398" y="548" type="curve" smooth="yes"/>
      <point x="229" y="548"/>
      <point x="56" y="422"/>
      <point x="56" y="193" type="curve" smooth="yes"/>
      <point x="56" y="190" type="line" smooth="yes"/>
      <point x="56" y="144"/>
      <point x="80" y="99"/>
      <point x="139" y="73" type="curve"/>
      <point x="162" y="12"/>
      <point x="213" y="-25"/>
      <point x="259" y="-25" type="curve" smooth="yes"/>
      <point x="467.38487972508597" y="-25.0"/>
      <point x="638" y="94"/>
      <point x="638" y="198" type="curve" smooth="yes"/>
      <point x="638" y="232"/>
      <point x="629" y="261"/>
      <point x="615" y="292" type="curve"/>
      <point x="600" y="292" type="line"/>
      <point x="296" y="36"/>
      <point x="371.65714285714284" y="109.0"/>
      <point x="267" y="109" type="curve" smooth="yes"/>
      <point x="215" y="109"/>
      <point x="191" y="119"/>
      <point x="160" y="146" type="curve"/>
      <point x="155" y="87" type="line"/>
      <point x="201" y="89" type="line"/>
      <point x="187" y="133"/>
      <point x="186" y="147"/>
      <point x="186" y="162" type="curve" smooth="yes"/>
      <point x="186" y="166" type="line" smooth="yes"/>
      <point x="186" y="315"/>
      <point x="270" y="435"/>
      <point x="393" y="435" type="curve" smooth="yes"/>
      <point x="423" y="435"/>
      <point x="439" y="430"/>
      <point x="456" y="417" type="curve"/>
      <point x="471" y="456" type="line"/>
      <point x="452" y="466" type="line"/>
      <point x="417" y="418"/>
      <point x="406" y="356"/>
      <point x="406" y="308" type="curve" smooth="yes"/>
      <point x="406" y="283"/>
      <point x="444" y="252"/>
      <point x="520" y="252" type="curve"/>
      <point x="536" y="252" type="line"/>
    </contour>
  </outline>
</glyph>
